# xmcd
#
# Track frame offsets: 
#        150
#        13465
#        26585
#        37490
#        48715
#        59830
#        70492
#        84017
#        96277
#        108385
#        121280
#        132195
#        143912
#        158447
#        168930
#        181092
#        191372
#        202620
#        214630
#        227915
#        241122
#        250412
#        266650
#        282042
#        294472
#        304907
#
# Disc length: 4222 seconds
#
# Revision: 2
# Processed by: cddbd v1.5.2PL0 Copyright (c) Steve Scherf et al.
# Submitted via: ExactAudioCopyFreeDBPlugin 1.0
#
DISCID=79107c1a
DTITLE=Marvin Gaye - Marvin Gaye:  The Master, 1961-1984 [box set]
DYEAR=1995
DGENRE=Soul
TTITLE0=It Takes Two (duet with Kim Weston)
TTITLE1=I Couldn't Help Falling for You (duet with Kim Weston)
TTITLE2=Lonely Lover
TTITLE3=Without Your Sweet Lovin'
TTITLE4=Ain't No Mountain High Enough (duet with Tammi Terrell)
TTITLE5=If I Could Build My Whole World Around You (duet with Tammi Te
TTITLE5=rrell)
TTITLE6=Your Precious Love (duet with Tammi Terrell)
TTITLE7=If This World Were Mine (duet with Tammi Terrell)
TTITLE8=Without You (My World Is Lonely)
TTITLE9=Together We Stand (Divided We Fall)
TTITLE10=You
TTITLE11=Chained
TTITLE12=I Heard it Through the Grapevine
TTITLE13=You're What's Happening (In the World Today)
TTITLE14=This Love Starved Heart of Mine (It's Killing Me)
TTITLE15=Ain't Nothing Like the Real Thing (duet with Tammi Terrell)
TTITLE16=Keep on Lovin' Me Honey (duet with Tammi Terrell)
TTITLE17=You're All I Need to Get By (duet with Tammi Terrell)
TTITLE18=Too Busy Thinking About My Baby
TTITLE19=More Than a Heart Can Stand
TTITLE20=How Can I Forget
TTITLE21=That's the Way Love Is
TTITLE22=Yesterday
TTITLE23=The End of Our Road
TTITLE24=Good Lovin' Ain't Easy to Come By (duet with Tammi Terrell)
TTITLE25=What You Gave Me (duet with Tammi Terrell)
EXTD=
EXTT0=
EXTT1=
EXTT2=
EXTT3=
EXTT4=
EXTT5=
EXTT6=
EXTT7=
EXTT8=
EXTT9=
EXTT10=
EXTT11=
EXTT12=
EXTT13=
EXTT14=
EXTT15=
EXTT16=
EXTT17=
EXTT18=
EXTT19=
EXTT20=
EXTT21=
EXTT22=
EXTT23=
EXTT24=
EXTT25=
PLAYORDER=
